<svg xmlns="http://www.w3.org/2000/svg" width="1040" height="520" viewBox="0 0 1040 520" role="img" aria-labelledby="title desc">
<title id="title">Cycle duration comparison</title>
<desc id="desc">Line chart comparing cycle duration by movement step for experiment runs. The y-axis reserves 82 percent of plot height for 0 through 200 ms, then compresses higher durations into a log-base-100 tail. High-duration outliers are labeled with their actual duration.</desc>
<rect width="100%" height="100%" fill="#ffffff"/>
<text x="72" y="28" font-family="Arial, sans-serif" font-size="14" font-weight="700">Cycle duration comparison</text>
<text x="72" y="50" font-family="Arial, sans-serif" font-size="12" fill="#555">Y-axis compresses values above 200 ms. Max observed: 12497 ms.</text>
<line x1="72" y1="428" x2="952" y2="428" stroke="#333" stroke-width="1"/>
<line x1="72" y1="128" x2="72" y2="428" stroke="#333" stroke-width="1"/>
<text x="512" y="496" text-anchor="middle" font-family="Arial, sans-serif" font-size="13">Step number</text>
<text x="18" y="278" text-anchor="middle" transform="rotate(-90 18 278)" font-family="Arial, sans-serif" font-size="13">Duration ms; log above 200</text>
<line x1="72" y1="428" x2="72" y2="433" stroke="#333" stroke-width="1"/>
<text x="72" y="446" text-anchor="middle" font-family="Arial, sans-serif" font-size="11">0</text>
<line x1="163.29" y1="428" x2="163.29" y2="433" stroke="#333" stroke-width="1"/>
<text x="163.29" y="446" text-anchor="middle" font-family="Arial, sans-serif" font-size="11">25</text>
<line x1="254.57" y1="428" x2="254.57" y2="433" stroke="#333" stroke-width="1"/>
<text x="254.57" y="446" text-anchor="middle" font-family="Arial, sans-serif" font-size="11">50</text>
<line x1="345.86" y1="428" x2="345.86" y2="433" stroke="#333" stroke-width="1"/>
<text x="345.86" y="446" text-anchor="middle" font-family="Arial, sans-serif" font-size="11">75</text>
<line x1="437.15" y1="428" x2="437.15" y2="433" stroke="#333" stroke-width="1"/>
<text x="437.15" y="446" text-anchor="middle" font-family="Arial, sans-serif" font-size="11">100</text>
<line x1="528.43" y1="428" x2="528.43" y2="433" stroke="#333" stroke-width="1"/>
<text x="528.43" y="446" text-anchor="middle" font-family="Arial, sans-serif" font-size="11">125</text>
<line x1="619.72" y1="428" x2="619.72" y2="433" stroke="#333" stroke-width="1"/>
<text x="619.72" y="446" text-anchor="middle" font-family="Arial, sans-serif" font-size="11">150</text>
<line x1="711" y1="428" x2="711" y2="433" stroke="#333" stroke-width="1"/>
<text x="711" y="446" text-anchor="middle" font-family="Arial, sans-serif" font-size="11">175</text>
<line x1="802.29" y1="428" x2="802.29" y2="433" stroke="#333" stroke-width="1"/>
<text x="802.29" y="446" text-anchor="middle" font-family="Arial, sans-serif" font-size="11">200</text>
<line x1="893.58" y1="428" x2="893.58" y2="433" stroke="#333" stroke-width="1"/>
<text x="893.58" y="446" text-anchor="middle" font-family="Arial, sans-serif" font-size="11">225</text>
<line x1="952" y1="428" x2="952" y2="433" stroke="#333" stroke-width="1"/>
<text x="952" y="446" text-anchor="middle" font-family="Arial, sans-serif" font-size="11">241</text>
<text x="64" y="428" text-anchor="end" dominant-baseline="middle" font-family="Arial, sans-serif" font-size="11">0</text>
<line x1="72" y1="366.5" x2="952" y2="366.5" stroke="#e1e1e1" stroke-width="1"/>
<text x="64" y="366.5" text-anchor="end" dominant-baseline="middle" font-family="Arial, sans-serif" font-size="11">50</text>
<line x1="72" y1="305" x2="952" y2="305" stroke="#e1e1e1" stroke-width="1"/>
<text x="64" y="305" text-anchor="end" dominant-baseline="middle" font-family="Arial, sans-serif" font-size="11">100</text>
<line x1="72" y1="243.5" x2="952" y2="243.5" stroke="#e1e1e1" stroke-width="1"/>
<text x="64" y="243.5" text-anchor="end" dominant-baseline="middle" font-family="Arial, sans-serif" font-size="11">150</text>
<line x1="72" y1="182" x2="952" y2="182" stroke="#e1e1e1" stroke-width="1"/>
<text x="64" y="182" text-anchor="end" dominant-baseline="middle" font-family="Arial, sans-serif" font-size="11">200</text>
<line x1="72" y1="155" x2="952" y2="155" stroke="#e1e1e1" stroke-width="1"/>
<text x="64" y="155" text-anchor="end" dominant-baseline="middle" font-family="Arial, sans-serif" font-size="11">2000</text>
<line x1="72" y1="133.51" x2="952" y2="133.51" stroke="#e1e1e1" stroke-width="1"/>
<text x="64" y="133.51" text-anchor="end" dominant-baseline="middle" font-family="Arial, sans-serif" font-size="11">12497</text>
<polyline fill="none" stroke="#1f77b4" stroke-width="2" points="79.30,238.58 82.95,243.50 86.61,227.51 90.26,253.34 93.91,258.26 97.56,247.19 101.21,257.03 104.86,264.41 108.51,279.17 112.17,274.25 115.82,274.25 119.47,257.03 123.12,276.71 126.77,277.94 130.42,255.80 134.07,264.41 137.73,260.72 141.38,281.63 145.03,266.87 148.68,254.57 152.33,268.10 155.98,271.79 159.63,284.09 163.29,276.71 166.94,286.55 170.59,263.18 174.24,290.24 177.89,276.71 181.54,279.17 185.20,277.94 188.85,276.71 192.50,279.17 196.15,260.72 199.80,282.86 203.45,265.64 207.10,273.02 210.76,265.64 214.41,280.40 218.06,266.87 221.71,268.10 225.36,266.87 229.01,265.64 232.66,280.40 236.32,268.10 239.97,276.71 243.62,277.94 247.27,277.94 250.92,282.86 254.57,281.63 258.22,277.94 261.88,290.24 265.53,265.64 269.18,282.86 272.83,273.02 276.48,259.49 280.13,280.40 283.78,285.32 287.44,276.71 291.09,271.79 294.74,281.63 298.39,271.79 302.04,274.25 305.69,260.72 309.34,274.25 313.00,284.09 316.65,274.25 320.30,290.24 323.95,289.01 327.60,286.55 331.25,271.79 334.90,274.25 338.56,285.32 342.21,274.25 345.86,270.56 349.51,268.10 353.16,279.17 356.81,273.02 360.46,282.86 364.12,268.10 367.77,265.64 371.42,276.71 375.07,276.71 378.72,284.09 382.37,276.71 386.02,277.94 389.68,281.63 393.33,285.32 396.98,290.24 400.63,274.25 404.28,273.02 407.93,277.94 411.59,289.01 415.24,281.63 418.89,277.94 422.54,275.48 426.19,270.56 429.84,286.55 433.49,276.71 437.15,276.71 440.80,270.56 444.45,269.33 448.10,269.33 451.75,276.71 455.40,275.48 459.05,289.01 462.71,282.86 466.36,284.09 470.01,275.48 473.66,269.33 477.31,276.71 480.96,271.79 484.61,293.93 488.27,273.02 491.92,265.64 495.57,260.72 499.22,265.64 502.87,282.86 506.52,265.64 510.17,284.09 513.83,287.78 517.48,277.94 521.13,281.63 524.78,275.48 528.43,270.56 532.08,269.33 535.73,271.79 539.39,271.79 543.04,271.79 546.69,286.55 550.34,282.86 553.99,268.10 557.64,254.57 561.29,265.64 564.95,261.95 568.60,276.71 572.25,263.18 575.90,263.18 579.55,282.86 583.20,285.32 586.85,286.55 590.51,298.85 594.16,292.70 597.81,279.17 601.46,270.56 605.11,275.48 608.76,281.63 612.41,280.40 616.07,275.48 619.72,282.86 623.37,274.25 627.02,275.48 630.67,286.55 634.32,280.40 637.98,274.25 641.63,266.87 645.28,270.56 648.93,277.94 652.58,292.70 656.23,276.71 659.88,263.18 663.54,274.25 667.19,284.09 670.84,270.56 674.49,289.01 678.14,263.18 681.79,264.41 685.44,269.33 689.10,285.32 692.75,274.25 696.40,271.79 700.05,281.63 703.70,274.25 707.35,289.01 711.00,290.24 714.66,273.02 718.31,287.78 721.96,291.47 725.61,273.02 729.26,291.47 732.91,290.24 736.56,281.63 740.22,274.25 743.87,277.94 747.52,274.25 751.17,280.40 754.82,264.41 758.47,286.55 762.12,281.63 765.78,275.48 769.43,280.40 773.08,276.71 776.73,266.87 780.38,286.55 784.03,274.25 787.68,275.48 791.34,269.33 794.99,290.24 798.64,293.93 802.29,291.47 805.94,281.63 809.59,281.63 813.24,281.63 816.90,282.86 820.55,268.10 824.20,280.40 827.85,286.55 831.50,269.33 835.15,293.93 838.80,281.63 842.46,279.17 846.11,286.55 849.76,269.33 853.41,290.24 857.06,289.01 860.71,269.33 864.37,268.10 868.02,280.40 871.67,290.24 875.32,270.56 878.97,266.87 882.62,280.40 886.27,284.09 889.93,274.25 893.58,281.63 897.23,284.09 900.88,289.01 904.53,285.32 908.18,296.39 911.83,284.09 915.49,284.09 919.14,287.78 922.79,289.01 926.44,266.87 930.09,284.09 933.74,282.86 937.39,282.86 941.05,270.56 944.70,273.02 948.35,273.02 952.00,280.40"/>
<line x1="682" y1="34" x2="712" y2="34" stroke="#1f77b4" stroke-width="2"/>
<text x="720" y="34" dominant-baseline="middle" font-family="Arial, sans-serif" font-size="12">001-baseline</text>
<rect x="949" y="277.4" width="6" height="6" fill="#ffffff" stroke="#1f77b4" stroke-width="2"/>
<line x1="952" y1="280.4" x2="938" y2="235.4" stroke="#1f77b4" stroke-width="1" opacity="0.65"/>
<text x="938" y="235.4" text-anchor="end" dominant-baseline="middle" font-family="Arial, sans-serif" font-size="11" fill="#222">cells/0 at step 241</text>
<polyline fill="none" stroke="#d62728" stroke-width="2" points="79.30,232.43 82.95,232.43 86.61,249.65 90.26,252.11 93.91,260.72 97.56,255.80 101.21,269.33 104.86,273.02 108.51,257.03 112.17,250.88 115.82,248.42 119.47,252.11 123.12,261.95 126.77,241.04 130.42,258.26 134.07,261.95 137.73,242.27 141.38,217.67 145.03,133.51 148.68,274.25 152.33,280.40 155.98,268.10 159.63,261.95 163.29,253.34 166.94,263.18 170.59,259.49 174.24,263.18 177.89,269.33 181.54,275.48 185.20,273.02 188.85,280.40 192.50,259.49 196.15,260.72 199.80,269.33 203.45,274.25 207.10,248.42 210.76,259.49 214.41,276.71 218.06,280.40 221.71,281.63 225.36,264.41 229.01,269.33 232.66,268.10 236.32,265.64 239.97,274.25 243.62,275.48 247.27,277.94 250.92,273.02 254.57,266.87 258.22,281.63 261.88,273.02 265.53,276.71 269.18,268.10 272.83,277.94 276.48,266.87 280.13,274.25 283.78,257.03 287.44,271.79 291.09,266.87 294.74,289.01 298.39,280.40 302.04,285.32 305.69,249.65 309.34,268.10 313.00,263.18 316.65,275.48 320.30,270.56 323.95,279.17 327.60,254.57 331.25,263.18 334.90,287.78 338.56,275.48 342.21,268.10 345.86,275.48 349.51,269.33 353.16,285.32 356.81,245.96 360.46,271.79 364.12,279.17 367.77,269.33 371.42,260.72 375.07,273.02 378.72,261.95 382.37,263.18 386.02,268.10 389.68,274.25 393.33,271.79 396.98,279.17 400.63,265.64 404.28,281.63 407.93,281.63 411.59,266.87 415.24,265.64 418.89,276.71 422.54,263.18 426.19,257.03 429.84,268.10 433.49,280.40 437.15,271.79 440.80,265.64 444.45,142.21 448.10,282.86 451.75,289.01 455.40,290.24 459.05,279.17 462.71,291.47 466.36,274.25 470.01,289.01 473.66,275.48 477.31,268.10 480.96,286.55 484.61,271.79 488.27,284.09 491.92,277.94 495.57,284.09 499.22,270.56 502.87,275.48 506.52,292.70 510.17,282.86 513.83,276.71 517.48,284.09 521.13,291.47 524.78,287.78 528.43,275.48 532.08,284.09 535.73,275.48 539.39,261.95 543.04,280.40 546.69,285.32 550.34,233.66 553.99,285.32 557.64,287.78 561.29,279.17 564.95,263.18 568.60,292.70 572.25,281.63 575.90,276.71 579.55,265.64 583.20,137.20 586.85,282.86 590.51,285.32 594.16,287.78 597.81,279.17 601.46,290.24 605.11,277.94 608.76,277.94 612.41,281.63 616.07,290.24 619.72,289.01 623.37,287.78 627.02,264.41"/>
<line x1="682" y1="54" x2="712" y2="54" stroke="#d62728" stroke-width="2"/>
<text x="720" y="54" dominant-baseline="middle" font-family="Arial, sans-serif" font-size="12">002-ccrs</text>
<rect x="624.02" y="261.41" width="6" height="6" fill="#ffffff" stroke="#d62728" stroke-width="2"/>
<line x1="627.02" y1="264.41" x2="641.02" y2="312.41" stroke="#d62728" stroke-width="1" opacity="0.65"/>
<text x="641.02" y="312.41" text-anchor="start" dominant-baseline="middle" font-family="Arial, sans-serif" font-size="11" fill="#222">cells/999 at step 152</text>
<circle cx="145.03" cy="133.51" r="4" fill="#ffffff" stroke="#d62728" stroke-width="2"/>
<line x1="145.03" y1="133.51" x2="153.03" y2="140" stroke="#d62728" stroke-width="1" opacity="0.75"/>
<text x="153.03" y="140" font-family="Arial, sans-serif" font-size="11" fill="#222">12497 ms</text>
<circle cx="444.45" cy="142.21" r="4" fill="#ffffff" stroke="#d62728" stroke-width="2"/>
<line x1="444.45" y1="142.21" x2="452.45" y2="140" stroke="#d62728" stroke-width="1" opacity="0.75"/>
<text x="452.45" y="140" font-family="Arial, sans-serif" font-size="11" fill="#222">5953 ms</text>
<circle cx="583.2" cy="137.2" r="4" fill="#ffffff" stroke="#d62728" stroke-width="2"/>
<line x1="583.2" y1="137.2" x2="591.2" y2="140" stroke="#d62728" stroke-width="1" opacity="0.75"/>
<text x="591.2" y="140" font-family="Arial, sans-serif" font-size="11" fill="#222">9126 ms</text>
</svg>
