<svg xmlns="http://www.w3.org/2000/svg" width="1040" height="520" viewBox="0 0 1040 520" role="img" aria-labelledby="title desc">
<title id="title">Cycle duration comparison</title>
<desc id="desc">Line chart comparing cycle duration by movement step for experiment runs. The y-axis reserves 82 percent of plot height for 0 through 200 ms, then compresses higher durations into a log-base-100 tail. High-duration outliers are labeled with their actual duration.</desc>
<rect width="100%" height="100%" fill="#ffffff"/>
<text x="72" y="28" font-family="Arial, sans-serif" font-size="14" font-weight="700">Cycle duration comparison</text>
<text x="72" y="50" font-family="Arial, sans-serif" font-size="12" fill="#555">Y-axis compresses values above 200 ms. Max observed: 9126 ms.</text>
<line x1="72" y1="428" x2="952" y2="428" stroke="#333" stroke-width="1"/>
<line x1="72" y1="128" x2="72" y2="428" stroke="#333" stroke-width="1"/>
<text x="512" y="496" text-anchor="middle" font-family="Arial, sans-serif" font-size="13">Step number</text>
<text x="18" y="278" text-anchor="middle" transform="rotate(-90 18 278)" font-family="Arial, sans-serif" font-size="13">Duration ms; log above 200</text>
<line x1="72" y1="428" x2="72" y2="433" stroke="#333" stroke-width="1"/>
<text x="72" y="446" text-anchor="middle" font-family="Arial, sans-serif" font-size="11">0</text>
<line x1="805.33" y1="428" x2="805.33" y2="433" stroke="#333" stroke-width="1"/>
<text x="805.33" y="446" text-anchor="middle" font-family="Arial, sans-serif" font-size="11">25</text>
<line x1="952" y1="428" x2="952" y2="433" stroke="#333" stroke-width="1"/>
<text x="952" y="446" text-anchor="middle" font-family="Arial, sans-serif" font-size="11">30</text>
<text x="64" y="428" text-anchor="end" dominant-baseline="middle" font-family="Arial, sans-serif" font-size="11">0</text>
<line x1="72" y1="366.5" x2="952" y2="366.5" stroke="#e1e1e1" stroke-width="1"/>
<text x="64" y="366.5" text-anchor="end" dominant-baseline="middle" font-family="Arial, sans-serif" font-size="11">50</text>
<line x1="72" y1="305" x2="952" y2="305" stroke="#e1e1e1" stroke-width="1"/>
<text x="64" y="305" text-anchor="end" dominant-baseline="middle" font-family="Arial, sans-serif" font-size="11">100</text>
<line x1="72" y1="243.5" x2="952" y2="243.5" stroke="#e1e1e1" stroke-width="1"/>
<text x="64" y="243.5" text-anchor="end" dominant-baseline="middle" font-family="Arial, sans-serif" font-size="11">150</text>
<line x1="72" y1="182" x2="952" y2="182" stroke="#e1e1e1" stroke-width="1"/>
<text x="64" y="182" text-anchor="end" dominant-baseline="middle" font-family="Arial, sans-serif" font-size="11">200</text>
<line x1="72" y1="155" x2="952" y2="155" stroke="#e1e1e1" stroke-width="1"/>
<text x="64" y="155" text-anchor="end" dominant-baseline="middle" font-family="Arial, sans-serif" font-size="11">2000</text>
<line x1="72" y1="137.2" x2="952" y2="137.2" stroke="#e1e1e1" stroke-width="1"/>
<text x="64" y="137.2" text-anchor="end" dominant-baseline="middle" font-family="Arial, sans-serif" font-size="11">9126</text>
<polyline fill="none" stroke="#1f77b4" stroke-width="2" points="101.33,291.47 130.67,287.78 160.00,275.48 189.33,284.09 218.67,275.48 248.00,261.95 277.33,280.40 306.67,285.32 336.00,233.66 365.33,285.32 394.67,287.78 424.00,279.17 453.33,263.18 482.67,292.70 512.00,281.63 541.33,276.71 570.67,265.64 600.00,137.20 629.33,282.86 658.67,285.32 688.00,287.78 717.33,279.17 746.67,290.24 776.00,277.94 805.33,277.94 834.67,281.63 864.00,290.24 893.33,289.01 922.67,287.78 952.00,264.41"/>
<line x1="682" y1="34" x2="712" y2="34" stroke="#1f77b4" stroke-width="2"/>
<text x="720" y="34" dominant-baseline="middle" font-family="Arial, sans-serif" font-size="12">002-ccrs</text>
<rect x="949" y="261.41" width="6" height="6" fill="#ffffff" stroke="#1f77b4" stroke-width="2"/>
<line x1="952" y1="264.41" x2="938" y2="219.41" stroke="#1f77b4" stroke-width="1" opacity="0.65"/>
<text x="938" y="219.41" text-anchor="end" dominant-baseline="middle" font-family="Arial, sans-serif" font-size="11" fill="#222">cells/999 at step 30</text>
<circle cx="600" cy="137.2" r="4" fill="#ffffff" stroke="#1f77b4" stroke-width="2"/>
<line x1="600" y1="137.2" x2="608" y2="140" stroke="#1f77b4" stroke-width="1" opacity="0.75"/>
<text x="608" y="140" font-family="Arial, sans-serif" font-size="11" fill="#222">9126 ms</text>
</svg>
