<svg xmlns="http://www.w3.org/2000/svg" width="1040" height="520" viewBox="0 0 1040 520" role="img" aria-labelledby="title desc">
<title id="title">Cycle duration comparison</title>
<desc id="desc">Line chart comparing cycle duration by movement step for experiment runs. The y-axis reserves 82 percent of plot height for 0 through 200 ms, then compresses higher durations into a log-base-100 tail. High-duration outliers are labeled with their actual duration.</desc>
<rect width="100%" height="100%" fill="#ffffff"/>
<text x="72" y="28" font-family="Arial, sans-serif" font-size="14" font-weight="700">Cycle duration comparison</text>
<text x="72" y="50" font-family="Arial, sans-serif" font-size="12" fill="#555">Y-axis compresses values above 200 ms. Max observed: 165 ms.</text>
<line x1="72" y1="428" x2="952" y2="428" stroke="#333" stroke-width="1"/>
<line x1="72" y1="128" x2="72" y2="428" stroke="#333" stroke-width="1"/>
<text x="512" y="496" text-anchor="middle" font-family="Arial, sans-serif" font-size="13">Step number</text>
<text x="18" y="278" text-anchor="middle" transform="rotate(-90 18 278)" font-family="Arial, sans-serif" font-size="13">Duration ms; log above 200</text>
<line x1="72" y1="428" x2="72" y2="433" stroke="#333" stroke-width="1"/>
<text x="72" y="446" text-anchor="middle" font-family="Arial, sans-serif" font-size="11">0</text>
<line x1="131.95" y1="428" x2="131.95" y2="433" stroke="#333" stroke-width="1"/>
<text x="131.95" y="446" text-anchor="middle" font-family="Arial, sans-serif" font-size="11">25</text>
<line x1="191.89" y1="428" x2="191.89" y2="433" stroke="#333" stroke-width="1"/>
<text x="191.89" y="446" text-anchor="middle" font-family="Arial, sans-serif" font-size="11">50</text>
<line x1="251.84" y1="428" x2="251.84" y2="433" stroke="#333" stroke-width="1"/>
<text x="251.84" y="446" text-anchor="middle" font-family="Arial, sans-serif" font-size="11">75</text>
<line x1="311.78" y1="428" x2="311.78" y2="433" stroke="#333" stroke-width="1"/>
<text x="311.78" y="446" text-anchor="middle" font-family="Arial, sans-serif" font-size="11">100</text>
<line x1="371.73" y1="428" x2="371.73" y2="433" stroke="#333" stroke-width="1"/>
<text x="371.73" y="446" text-anchor="middle" font-family="Arial, sans-serif" font-size="11">125</text>
<line x1="431.67" y1="428" x2="431.67" y2="433" stroke="#333" stroke-width="1"/>
<text x="431.67" y="446" text-anchor="middle" font-family="Arial, sans-serif" font-size="11">150</text>
<line x1="491.62" y1="428" x2="491.62" y2="433" stroke="#333" stroke-width="1"/>
<text x="491.62" y="446" text-anchor="middle" font-family="Arial, sans-serif" font-size="11">175</text>
<line x1="551.56" y1="428" x2="551.56" y2="433" stroke="#333" stroke-width="1"/>
<text x="551.56" y="446" text-anchor="middle" font-family="Arial, sans-serif" font-size="11">200</text>
<line x1="611.51" y1="428" x2="611.51" y2="433" stroke="#333" stroke-width="1"/>
<text x="611.51" y="446" text-anchor="middle" font-family="Arial, sans-serif" font-size="11">225</text>
<line x1="671.46" y1="428" x2="671.46" y2="433" stroke="#333" stroke-width="1"/>
<text x="671.46" y="446" text-anchor="middle" font-family="Arial, sans-serif" font-size="11">250</text>
<line x1="731.4" y1="428" x2="731.4" y2="433" stroke="#333" stroke-width="1"/>
<text x="731.4" y="446" text-anchor="middle" font-family="Arial, sans-serif" font-size="11">275</text>
<line x1="791.35" y1="428" x2="791.35" y2="433" stroke="#333" stroke-width="1"/>
<text x="791.35" y="446" text-anchor="middle" font-family="Arial, sans-serif" font-size="11">300</text>
<line x1="851.29" y1="428" x2="851.29" y2="433" stroke="#333" stroke-width="1"/>
<text x="851.29" y="446" text-anchor="middle" font-family="Arial, sans-serif" font-size="11">325</text>
<line x1="911.24" y1="428" x2="911.24" y2="433" stroke="#333" stroke-width="1"/>
<text x="911.24" y="446" text-anchor="middle" font-family="Arial, sans-serif" font-size="11">350</text>
<line x1="952" y1="428" x2="952" y2="433" stroke="#333" stroke-width="1"/>
<text x="952" y="446" text-anchor="middle" font-family="Arial, sans-serif" font-size="11">367</text>
<text x="64" y="428" text-anchor="end" dominant-baseline="middle" font-family="Arial, sans-serif" font-size="11">0</text>
<line x1="72" y1="366.5" x2="952" y2="366.5" stroke="#e1e1e1" stroke-width="1"/>
<text x="64" y="366.5" text-anchor="end" dominant-baseline="middle" font-family="Arial, sans-serif" font-size="11">50</text>
<line x1="72" y1="305" x2="952" y2="305" stroke="#e1e1e1" stroke-width="1"/>
<text x="64" y="305" text-anchor="end" dominant-baseline="middle" font-family="Arial, sans-serif" font-size="11">100</text>
<line x1="72" y1="243.5" x2="952" y2="243.5" stroke="#e1e1e1" stroke-width="1"/>
<text x="64" y="243.5" text-anchor="end" dominant-baseline="middle" font-family="Arial, sans-serif" font-size="11">150</text>
<line x1="72" y1="182" x2="952" y2="182" stroke="#e1e1e1" stroke-width="1"/>
<text x="64" y="182" text-anchor="end" dominant-baseline="middle" font-family="Arial, sans-serif" font-size="11">200</text>
<polyline fill="none" stroke="#1f77b4" stroke-width="2" points="76.80,236.12 79.19,226.28 81.59,245.96 83.99,253.34 86.39,253.34 88.78,250.88 91.18,274.25 93.58,274.25 95.98,273.02 98.38,266.87 100.77,263.18 103.17,260.72 105.57,255.80 107.97,275.48 110.37,260.72 112.76,258.26 115.16,266.87 117.56,273.02 119.96,261.95 122.35,263.18 124.75,282.86 127.15,287.78 129.55,264.41 131.95,263.18 134.34,275.48 136.74,282.86 139.14,255.80 141.54,269.33 143.93,273.02 146.33,287.78 148.73,264.41 151.13,287.78 153.53,284.09 155.92,279.17 158.32,260.72 160.72,266.87 163.12,279.17 165.51,285.32 167.91,269.33 170.31,286.55 172.71,268.10 175.11,281.63 177.50,271.79 179.90,271.79 182.30,285.32 184.70,260.72 187.10,292.70 189.49,269.33 191.89,270.56 194.29,274.25 196.69,282.86 199.08,287.78 201.48,274.25 203.88,266.87 206.28,295.16 208.68,291.47 211.07,264.41 213.47,265.64 215.87,287.78 218.27,271.79 220.66,277.94 223.06,273.02 225.46,273.02 227.86,264.41 230.26,291.47 232.65,270.56 235.05,274.25 237.45,258.26 239.85,269.33 242.25,271.79 244.64,277.94 247.04,282.86 249.44,284.09 251.84,290.24 254.23,286.55 256.63,297.62 259.03,277.94 261.43,273.02 263.83,274.25 266.22,271.79 268.62,270.56 271.02,266.87 273.42,275.48 275.81,271.79 278.21,287.78 280.61,273.02 283.01,268.10 285.41,275.48 287.80,284.09 290.20,285.32 292.60,273.02 295.00,275.48 297.40,268.10 299.79,277.94 302.19,268.10 304.59,279.17 306.99,269.33 309.38,282.86 311.78,266.87 314.18,270.56 316.58,273.02 318.98,275.48 321.37,280.40 323.77,279.17 326.17,274.25 328.57,293.93 330.96,275.48 333.36,273.02 335.76,270.56 338.16,261.95 340.56,277.94 342.95,286.55 345.35,286.55 347.75,276.71 350.15,284.09 352.54,252.11 354.94,290.24 357.34,292.70 359.74,292.70 362.14,270.56 364.53,268.10 366.93,292.70 369.33,280.40 371.73,268.10 374.13,295.16 376.52,289.01 378.92,281.63 381.32,260.72 383.72,268.10 386.11,277.94 388.51,282.86 390.91,269.33 393.31,264.41 395.71,269.33 398.10,276.71 400.50,265.64 402.90,264.41 405.30,292.70 407.69,270.56 410.09,276.71 412.49,261.95 414.89,293.93 417.29,279.17 419.68,269.33 422.08,269.33 424.48,259.49 426.88,257.03 429.28,263.18 431.67,225.05 434.07,243.50 436.47,271.79 438.87,291.47 441.26,286.55 443.66,264.41 446.06,284.09 448.46,269.33 450.86,264.41 453.25,279.17 455.65,282.86 458.05,280.40 460.45,250.88 462.84,265.64 465.24,261.95 467.64,273.02 470.04,271.79 472.44,266.87 474.83,286.55 477.23,274.25 479.63,276.71 482.03,273.02 484.43,268.10 486.82,277.94 489.22,290.24 491.62,292.70 494.02,289.01 496.41,271.79 498.81,270.56 501.21,280.40 503.61,289.01 506.01,291.47 508.40,284.09 510.80,280.40 513.20,289.01 515.60,285.32 517.99,285.32 520.39,270.56 522.79,266.87 525.19,292.70 527.59,266.87 529.98,279.17 532.38,276.71 534.78,280.40 537.18,286.55 539.57,285.32 541.97,270.56 544.37,259.49 546.77,273.02 549.17,273.02 551.56,275.48 553.96,273.02 556.36,271.79 558.76,280.40 561.16,261.95 563.55,276.71 565.95,281.63 568.35,265.64 570.75,295.16 573.14,277.94 575.54,287.78 577.94,250.88 580.34,276.71 582.74,275.48 585.13,274.25 587.53,259.49 589.93,268.10 592.33,280.40 594.72,259.49 597.12,285.32 599.52,289.01 601.92,271.79 604.32,276.71 606.71,268.10 609.11,280.40 611.51,253.34 613.91,257.03 616.31,286.55 618.70,280.40 621.10,282.86 623.50,254.57 625.90,259.49 628.29,265.64 630.69,264.41 633.09,258.26 635.49,260.72 637.89,258.26 640.28,266.87 642.68,261.95 645.08,266.87 647.48,279.17 649.87,289.01 652.27,285.32 654.67,265.64 657.07,260.72 659.47,253.34 661.86,277.94 664.26,271.79 666.66,265.64 669.06,265.64 671.46,279.17 673.85,260.72 676.25,261.95 678.65,280.40 681.05,269.33 683.44,274.25 685.84,257.03 688.24,263.18 690.64,274.25 693.04,282.86 695.43,269.33 697.83,268.10 700.23,264.41 702.63,264.41 705.02,276.71 707.42,266.87 709.82,259.49 712.22,249.65 714.62,285.32 717.01,252.11 719.41,268.10 721.81,274.25 724.21,264.41 726.60,269.33 729.00,271.79 731.40,263.18 733.80,277.94 736.20,264.41 738.59,270.56 740.99,263.18 743.39,245.96 745.79,259.49 748.19,260.72 750.58,254.57 752.98,258.26 755.38,264.41 757.78,286.55 760.17,259.49 762.57,259.49 764.97,265.64 767.37,264.41 769.77,268.10 772.16,269.33 774.56,284.09 776.96,260.72 779.36,258.26 781.75,266.87 784.15,257.03 786.55,266.87 788.95,265.64 791.35,257.03 793.74,254.57 796.14,257.03 798.54,259.49 800.94,271.79 803.34,282.86 805.73,254.57 808.13,259.49 810.53,263.18 812.93,249.65 815.32,282.86 817.72,249.65 820.12,244.73 822.52,250.88 824.92,273.02 827.31,252.11 829.71,274.25 832.11,257.03 834.51,263.18 836.90,274.25 839.30,258.26 841.70,266.87 844.10,263.18 846.50,270.56 848.89,277.94 851.29,280.40 853.69,280.40 856.09,271.79 858.49,266.87 860.88,282.86 863.28,270.56 865.68,265.64 868.08,270.56 870.47,255.80 872.87,257.03 875.27,280.40 877.67,260.72 880.07,268.10 882.46,260.72 884.86,282.86 887.26,280.40 889.66,260.72 892.05,265.64 894.45,269.33 896.85,280.40 899.25,253.34 901.65,268.10 904.04,269.33 906.44,269.33 908.84,270.56 911.24,275.48 913.63,257.03 916.03,268.10 918.43,264.41 920.83,259.49 923.23,274.25 925.62,263.18 928.02,265.64 930.42,275.48 932.82,260.72 935.22,257.03 937.61,268.10 940.01,270.56 942.41,263.18 944.81,257.03 947.20,263.18 949.60,254.57 952.00,249.65"/>
<line x1="682" y1="34" x2="712" y2="34" stroke="#1f77b4" stroke-width="2"/>
<text x="720" y="34" dominant-baseline="middle" font-family="Arial, sans-serif" font-size="12">001-baseline</text>
<rect x="949" y="246.65" width="6" height="6" fill="#ffffff" stroke="#1f77b4" stroke-width="2"/>
<line x1="952" y1="249.65" x2="938" y2="204.65" stroke="#1f77b4" stroke-width="1" opacity="0.65"/>
<text x="938" y="204.65" text-anchor="end" dominant-baseline="middle" font-family="Arial, sans-serif" font-size="11" fill="#222">cells/999 at step 367</text>
<polyline fill="none" stroke="#d62728" stroke-width="2" points="76.80,244.73 79.19,253.34 81.59,243.50 83.99,259.49 86.39,261.95 88.78,264.41 91.18,263.18 93.58,276.71 95.98,265.64 98.38,269.33 100.77,259.49 103.17,269.33 105.57,277.94 107.97,260.72 110.37,259.49 112.76,268.10 115.16,260.72 117.56,273.02 119.96,273.02 122.35,274.25 124.75,273.02 127.15,273.02 129.55,273.02 131.95,269.33 134.34,266.87 136.74,281.63 139.14,271.79 141.54,263.18 143.93,285.32 146.33,270.56 148.73,284.09 151.13,268.10 153.53,275.48 155.92,258.26 158.32,274.25 160.72,287.78 163.12,279.17 165.51,270.56 167.91,268.10 170.31,266.87 172.71,279.17 175.11,266.87 177.50,281.63 179.90,280.40 182.30,264.41 184.70,277.94 187.10,269.33 189.49,264.41 191.89,269.33 194.29,282.86 196.69,276.71 199.08,264.41 201.48,281.63 203.88,268.10 206.28,281.63 208.68,266.87 211.07,274.25 213.47,281.63 215.87,276.71 218.27,287.78 220.66,269.33 223.06,259.49 225.46,282.86 227.86,279.17 230.26,274.25 232.65,263.18 235.05,275.48 237.45,259.49 239.85,270.56 242.25,265.64 244.64,280.40 247.04,265.64 249.44,268.10 251.84,252.11 254.23,284.09 256.63,275.48 259.03,281.63 261.43,286.55 263.83,280.40 266.22,261.95 268.62,271.79 271.02,253.34 273.42,259.49 275.81,277.94 278.21,265.64 280.61,275.48 283.01,277.94 285.41,274.25 287.80,290.24 290.20,261.95 292.60,270.56 295.00,263.18 297.40,266.87 299.79,261.95 302.19,260.72 304.59,263.18 306.99,261.95 309.38,271.79 311.78,270.56 314.18,282.86 316.58,279.17 318.98,276.71 321.37,279.17 323.77,295.16 326.17,286.55 328.57,270.56 330.96,268.10 333.36,273.02 335.76,282.86 338.16,264.41 340.56,290.24 342.95,274.25 345.35,293.93 347.75,261.95 350.15,274.25 352.54,276.71 354.94,277.94 357.34,273.02 359.74,290.24 362.14,250.88 364.53,290.24 366.93,285.32 369.33,284.09 371.73,293.93 374.13,279.17 376.52,257.03 378.92,269.33 381.32,277.94 383.72,287.78 386.11,280.40 388.51,266.87 390.91,292.70 393.31,281.63 395.71,274.25 398.10,292.70 400.50,275.48 402.90,287.78 405.30,284.09 407.69,275.48 410.09,274.25 412.49,270.56 414.89,279.17 417.29,284.09 419.68,271.79 422.08,270.56 424.48,280.40"/>
<line x1="682" y1="54" x2="712" y2="54" stroke="#d62728" stroke-width="2"/>
<text x="720" y="54" dominant-baseline="middle" font-family="Arial, sans-serif" font-size="12">002-ccrs</text>
<rect x="421.48" y="277.4" width="6" height="6" fill="#ffffff" stroke="#d62728" stroke-width="2"/>
<line x1="424.48" y1="280.4" x2="438.48" y2="328.4" stroke="#d62728" stroke-width="1" opacity="0.65"/>
<text x="438.48" y="328.4" text-anchor="start" dominant-baseline="middle" font-family="Arial, sans-serif" font-size="11" fill="#222">cells/999 at step 147</text>
</svg>
