<svg xmlns="http://www.w3.org/2000/svg" width="1040" height="520" viewBox="0 0 1040 520" role="img" aria-labelledby="title desc">
<title id="title">Cycle duration comparison</title>
<desc id="desc">Line chart comparing cycle duration by movement step for experiment runs. The y-axis reserves 82 percent of plot height for 0 through 200 ms, then compresses higher durations into a log-base-100 tail. High-duration outliers are labeled with their actual duration.</desc>
<rect width="100%" height="100%" fill="#ffffff"/>
<text x="72" y="28" font-family="Arial, sans-serif" font-size="14" font-weight="700">Cycle duration comparison</text>
<text x="72" y="50" font-family="Arial, sans-serif" font-size="12" fill="#555">Y-axis compresses values above 200 ms. Max observed: 145 ms.</text>
<line x1="72" y1="428" x2="952" y2="428" stroke="#333" stroke-width="1"/>
<line x1="72" y1="128" x2="72" y2="428" stroke="#333" stroke-width="1"/>
<text x="512" y="496" text-anchor="middle" font-family="Arial, sans-serif" font-size="13">Step number</text>
<text x="18" y="278" text-anchor="middle" transform="rotate(-90 18 278)" font-family="Arial, sans-serif" font-size="13">Duration ms; log above 200</text>
<line x1="72" y1="428" x2="72" y2="433" stroke="#333" stroke-width="1"/>
<text x="72" y="446" text-anchor="middle" font-family="Arial, sans-serif" font-size="11">0</text>
<line x1="830.62" y1="428" x2="830.62" y2="433" stroke="#333" stroke-width="1"/>
<text x="830.62" y="446" text-anchor="middle" font-family="Arial, sans-serif" font-size="11">25</text>
<line x1="952" y1="428" x2="952" y2="433" stroke="#333" stroke-width="1"/>
<text x="952" y="446" text-anchor="middle" font-family="Arial, sans-serif" font-size="11">29</text>
<text x="64" y="428" text-anchor="end" dominant-baseline="middle" font-family="Arial, sans-serif" font-size="11">0</text>
<line x1="72" y1="366.5" x2="952" y2="366.5" stroke="#e1e1e1" stroke-width="1"/>
<text x="64" y="366.5" text-anchor="end" dominant-baseline="middle" font-family="Arial, sans-serif" font-size="11">50</text>
<line x1="72" y1="305" x2="952" y2="305" stroke="#e1e1e1" stroke-width="1"/>
<text x="64" y="305" text-anchor="end" dominant-baseline="middle" font-family="Arial, sans-serif" font-size="11">100</text>
<line x1="72" y1="243.5" x2="952" y2="243.5" stroke="#e1e1e1" stroke-width="1"/>
<text x="64" y="243.5" text-anchor="end" dominant-baseline="middle" font-family="Arial, sans-serif" font-size="11">150</text>
<line x1="72" y1="182" x2="952" y2="182" stroke="#e1e1e1" stroke-width="1"/>
<text x="64" y="182" text-anchor="end" dominant-baseline="middle" font-family="Arial, sans-serif" font-size="11">200</text>
<polyline fill="none" stroke="#1f77b4" stroke-width="2" points="102.34,282.86 132.69,280.40 163.03,260.72 193.38,265.64 223.72,269.33 254.07,280.40 284.41,253.34 314.76,268.10 345.10,269.33 375.45,269.33 405.79,270.56 436.14,275.48 466.48,257.03 496.83,268.10 527.17,264.41 557.52,259.49 587.86,274.25 618.21,263.18 648.55,265.64 678.90,275.48 709.24,260.72 739.59,257.03 769.93,268.10 800.28,270.56 830.62,263.18 860.97,257.03 891.31,263.18 921.66,254.57 952.00,249.65"/>
<line x1="682" y1="34" x2="712" y2="34" stroke="#1f77b4" stroke-width="2"/>
<text x="720" y="34" dominant-baseline="middle" font-family="Arial, sans-serif" font-size="12">001-baseline</text>
<rect x="949" y="246.65" width="6" height="6" fill="#ffffff" stroke="#1f77b4" stroke-width="2"/>
<line x1="952" y1="249.65" x2="938" y2="204.65" stroke="#1f77b4" stroke-width="1" opacity="0.65"/>
<text x="938" y="204.65" text-anchor="end" dominant-baseline="middle" font-family="Arial, sans-serif" font-size="11" fill="#222">cells/999 at step 29</text>
<polyline fill="none" stroke="#d62728" stroke-width="2" points="102.34,273.02 132.69,290.24 163.03,250.88 193.38,290.24 223.72,285.32 254.07,284.09 284.41,293.93 314.76,279.17 345.10,257.03 375.45,269.33 405.79,277.94 436.14,287.78 466.48,280.40 496.83,266.87 527.17,292.70 557.52,281.63 587.86,274.25 618.21,292.70 648.55,275.48 678.90,287.78 709.24,284.09 739.59,275.48 769.93,274.25 800.28,270.56 830.62,279.17 860.97,284.09 891.31,271.79 921.66,270.56 952.00,280.40"/>
<line x1="682" y1="54" x2="712" y2="54" stroke="#d62728" stroke-width="2"/>
<text x="720" y="54" dominant-baseline="middle" font-family="Arial, sans-serif" font-size="12">002-ccrs</text>
<rect x="949" y="277.4" width="6" height="6" fill="#ffffff" stroke="#d62728" stroke-width="2"/>
<line x1="952" y1="280.4" x2="938" y2="328.4" stroke="#d62728" stroke-width="1" opacity="0.65"/>
<text x="938" y="328.4" text-anchor="end" dominant-baseline="middle" font-family="Arial, sans-serif" font-size="11" fill="#222">cells/999 at step 29</text>
</svg>
