<svg xmlns="http://www.w3.org/2000/svg" width="1040" height="520" viewBox="0 0 1040 520" role="img" aria-labelledby="title desc">
<title id="title">Cycle duration comparison</title>
<desc id="desc">Line chart comparing cycle duration by movement step for experiment runs. The y-axis reserves 82 percent of plot height for 0 through 200 ms, then compresses higher durations into a log-base-100 tail. High-duration outliers are labeled with their actual duration.</desc>
<rect width="100%" height="100%" fill="#ffffff"/>
<text x="72" y="28" font-family="Arial, sans-serif" font-size="14" font-weight="700">Cycle duration comparison</text>
<text x="72" y="50" font-family="Arial, sans-serif" font-size="12" fill="#555">Y-axis compresses values above 200 ms. Max observed: 165 ms.</text>
<line x1="72" y1="428" x2="952" y2="428" stroke="#333" stroke-width="1"/>
<line x1="72" y1="128" x2="72" y2="428" stroke="#333" stroke-width="1"/>
<text x="512" y="496" text-anchor="middle" font-family="Arial, sans-serif" font-size="13">Step number</text>
<text x="18" y="278" text-anchor="middle" transform="rotate(-90 18 278)" font-family="Arial, sans-serif" font-size="13">Duration ms; log above 200</text>
<line x1="72" y1="428" x2="72" y2="433" stroke="#333" stroke-width="1"/>
<text x="72" y="446" text-anchor="middle" font-family="Arial, sans-serif" font-size="11">0</text>
<line x1="217.7" y1="428" x2="217.7" y2="433" stroke="#333" stroke-width="1"/>
<text x="217.7" y="446" text-anchor="middle" font-family="Arial, sans-serif" font-size="11">25</text>
<line x1="363.39" y1="428" x2="363.39" y2="433" stroke="#333" stroke-width="1"/>
<text x="363.39" y="446" text-anchor="middle" font-family="Arial, sans-serif" font-size="11">50</text>
<line x1="509.09" y1="428" x2="509.09" y2="433" stroke="#333" stroke-width="1"/>
<text x="509.09" y="446" text-anchor="middle" font-family="Arial, sans-serif" font-size="11">75</text>
<line x1="654.78" y1="428" x2="654.78" y2="433" stroke="#333" stroke-width="1"/>
<text x="654.78" y="446" text-anchor="middle" font-family="Arial, sans-serif" font-size="11">100</text>
<line x1="800.48" y1="428" x2="800.48" y2="433" stroke="#333" stroke-width="1"/>
<text x="800.48" y="446" text-anchor="middle" font-family="Arial, sans-serif" font-size="11">125</text>
<line x1="946.17" y1="428" x2="946.17" y2="433" stroke="#333" stroke-width="1"/>
<text x="946.17" y="446" text-anchor="middle" font-family="Arial, sans-serif" font-size="11">150</text>
<line x1="952" y1="428" x2="952" y2="433" stroke="#333" stroke-width="1"/>
<text x="952" y="446" text-anchor="middle" font-family="Arial, sans-serif" font-size="11">151</text>
<text x="64" y="428" text-anchor="end" dominant-baseline="middle" font-family="Arial, sans-serif" font-size="11">0</text>
<line x1="72" y1="366.5" x2="952" y2="366.5" stroke="#e1e1e1" stroke-width="1"/>
<text x="64" y="366.5" text-anchor="end" dominant-baseline="middle" font-family="Arial, sans-serif" font-size="11">50</text>
<line x1="72" y1="305" x2="952" y2="305" stroke="#e1e1e1" stroke-width="1"/>
<text x="64" y="305" text-anchor="end" dominant-baseline="middle" font-family="Arial, sans-serif" font-size="11">100</text>
<line x1="72" y1="243.5" x2="952" y2="243.5" stroke="#e1e1e1" stroke-width="1"/>
<text x="64" y="243.5" text-anchor="end" dominant-baseline="middle" font-family="Arial, sans-serif" font-size="11">150</text>
<line x1="72" y1="182" x2="952" y2="182" stroke="#e1e1e1" stroke-width="1"/>
<text x="64" y="182" text-anchor="end" dominant-baseline="middle" font-family="Arial, sans-serif" font-size="11">200</text>
<polyline fill="none" stroke="#1f77b4" stroke-width="2" points="77.83,236.12 83.66,226.28 89.48,245.96 95.31,253.34 101.14,253.34 106.97,250.88 112.79,274.25 118.62,274.25 124.45,273.02 130.28,266.87 136.11,263.18 141.93,260.72 147.76,255.80 153.59,275.48 159.42,260.72 165.25,258.26 171.07,266.87 176.90,273.02 182.73,261.95 188.56,263.18 194.38,282.86 200.21,287.78 206.04,264.41 211.87,263.18 217.70,275.48 223.52,282.86 229.35,255.80 235.18,269.33 241.01,273.02 246.83,287.78 252.66,264.41 258.49,287.78 264.32,284.09 270.15,279.17 275.97,260.72 281.80,266.87 287.63,279.17 293.46,285.32 299.28,269.33 305.11,286.55 310.94,268.10 316.77,281.63 322.60,271.79 328.42,271.79 334.25,285.32 340.08,260.72 345.91,292.70 351.74,269.33 357.56,270.56 363.39,274.25 369.22,282.86 375.05,287.78 380.87,274.25 386.70,266.87 392.53,295.16 398.36,291.47 404.19,264.41 410.01,265.64 415.84,287.78 421.67,271.79 427.50,277.94 433.32,273.02 439.15,273.02 444.98,264.41 450.81,291.47 456.64,270.56 462.46,274.25 468.29,258.26 474.12,269.33 479.95,271.79 485.77,277.94 491.60,282.86 497.43,284.09 503.26,290.24 509.09,286.55 514.91,297.62 520.74,277.94 526.57,273.02 532.40,274.25 538.23,271.79 544.05,270.56 549.88,266.87 555.71,275.48 561.54,271.79 567.36,287.78 573.19,273.02 579.02,268.10 584.85,275.48 590.68,284.09 596.50,285.32 602.33,273.02 608.16,275.48 613.99,268.10 619.81,277.94 625.64,268.10 631.47,279.17 637.30,269.33 643.13,282.86 648.95,266.87 654.78,270.56 660.61,273.02 666.44,275.48 672.26,280.40 678.09,279.17 683.92,274.25 689.75,293.93 695.58,275.48 701.40,273.02 707.23,270.56 713.06,261.95 718.89,277.94 724.72,286.55 730.54,286.55 736.37,276.71 742.20,284.09 748.03,252.11 753.85,290.24 759.68,292.70 765.51,292.70 771.34,270.56 777.17,268.10 782.99,292.70 788.82,280.40 794.65,268.10 800.48,295.16 806.30,289.01 812.13,281.63 817.96,260.72 823.79,268.10 829.62,277.94 835.44,282.86 841.27,269.33 847.10,264.41 852.93,269.33 858.75,276.71 864.58,265.64 870.41,264.41 876.24,292.70 882.07,270.56 887.89,276.71 893.72,261.95 899.55,293.93 905.38,279.17 911.21,269.33 917.03,269.33 922.86,259.49 928.69,257.03 934.52,263.18 940.34,225.05 946.17,243.50 952.00,271.79"/>
<line x1="682" y1="34" x2="712" y2="34" stroke="#1f77b4" stroke-width="2"/>
<text x="720" y="34" dominant-baseline="middle" font-family="Arial, sans-serif" font-size="12">001-baseline</text>
<rect x="949" y="268.79" width="6" height="6" fill="#ffffff" stroke="#1f77b4" stroke-width="2"/>
<line x1="952" y1="271.79" x2="938" y2="226.79" stroke="#1f77b4" stroke-width="1" opacity="0.65"/>
<text x="938" y="226.79" text-anchor="end" dominant-baseline="middle" font-family="Arial, sans-serif" font-size="11" fill="#222">cells/13/5 at step 151</text>
<polyline fill="none" stroke="#d62728" stroke-width="2" points="77.83,244.73 83.66,253.34 89.48,243.50 95.31,259.49 101.14,261.95 106.97,264.41 112.79,263.18 118.62,276.71 124.45,265.64 130.28,269.33 136.11,259.49 141.93,269.33 147.76,277.94 153.59,260.72 159.42,259.49 165.25,268.10 171.07,260.72"/>
<line x1="682" y1="54" x2="712" y2="54" stroke="#d62728" stroke-width="2"/>
<text x="720" y="54" dominant-baseline="middle" font-family="Arial, sans-serif" font-size="12">002-ccrs</text>
<rect x="168.07" y="257.72" width="6" height="6" fill="#ffffff" stroke="#d62728" stroke-width="2"/>
<line x1="171.07" y1="260.72" x2="185.07" y2="308.72" stroke="#d62728" stroke-width="1" opacity="0.65"/>
<text x="185.07" y="308.72" text-anchor="start" dominant-baseline="middle" font-family="Arial, sans-serif" font-size="11" fill="#222">cells/13/5 at step 17</text>
</svg>
